<svg width="500" height="500" viewBox="0 0 500 500" fill="none" xmlns="http://www.w3.org/2000/svg">
<path d="M35.5103 215.39C35.5103 215.39 27.2203 295.39 86.3103 361.73C145.4 428.07 236.79 450.28 310.51 470.24C384.23 490.2 447.13 459.53 464.45 397.54C481.77 335.55 427.45 305.44 406.53 226.72C385.61 148 391.59 124.71 332.41 67C273.23 9.29004 167.41 16.19 103.41 81.87C39.4103 147.55 35.5103 215.39 35.5103 215.39Z" fill="#7D18F7"/>
<path opacity="0.7" d="M35.5103 215.39C35.5103 215.39 27.2203 295.39 86.3103 361.73C145.4 428.07 236.79 450.28 310.51 470.24C384.23 490.2 447.13 459.53 464.45 397.54C481.77 335.55 427.45 305.44 406.53 226.72C385.61 148 391.59 124.71 332.41 67C273.23 9.29004 167.41 16.19 103.41 81.87C39.4103 147.55 35.5103 215.39 35.5103 215.39Z" fill="white"/>
<path d="M126.72 74.9199L252.52 280.44L405.38 135.63" stroke="#263238" stroke-linecap="round" stroke-linejoin="round"/>
<path d="M60.5801 289.79L252.52 280.44L112.83 221.2" stroke="#263238" stroke-linecap="round" stroke-linejoin="round"/>
<path d="M283.33 50.5801L254.771 285.28L429.951 320.04" stroke="#263238" stroke-linecap="round" stroke-linejoin="round"/>
<path d="M115.75 426.71L252.52 280.44L394.4 387.95" stroke="#263238" stroke-linecap="round" stroke-linejoin="round"/>
<path d="M56.3102 263.8C51.4843 263.8 46.7668 265.231 42.7543 267.912C38.7417 270.593 35.6143 274.404 33.7675 278.862C31.9207 283.321 31.4375 288.227 32.379 292.96C33.3205 297.693 35.6444 302.041 39.0568 305.453C42.4692 308.866 46.8168 311.19 51.55 312.131C56.2831 313.072 61.1891 312.589 65.6476 310.742C70.1062 308.896 73.9169 305.768 76.598 301.756C79.2791 297.743 80.7102 293.026 80.7102 288.2C80.7022 281.731 78.129 275.529 73.5548 270.955C68.9806 266.381 62.779 263.808 56.3102 263.8Z" fill="#263238"/>
<path fill-rule="evenodd" clip-rule="evenodd" d="M71.2503 287.57C71.0015 284.059 69.4391 280.77 66.8743 278.359C64.3096 275.948 60.9307 274.592 57.4107 274.56C53.8908 274.529 50.4881 275.824 47.8806 278.189C45.273 280.554 43.652 283.814 43.3403 287.32C43.3403 287.52 43.3403 287.72 43.3403 287.93C43.3379 290.455 44.0298 292.932 45.3403 295.09L42.8203 302.52L50.5603 300.06C52.6808 301.218 55.0649 301.808 57.4807 301.772C59.8966 301.736 62.2619 301.075 64.3468 299.854C66.4316 298.633 68.1649 296.893 69.3782 294.803C70.5914 292.714 71.2433 290.346 71.2703 287.93C71.2603 287.81 71.2603 287.69 71.2503 287.57ZM57.2503 299.57C54.9546 299.572 52.7086 298.901 50.7903 297.64L46.2803 299.08L47.7503 294.75C46.293 292.771 45.508 290.378 45.5103 287.92C45.5101 287.543 45.5301 287.165 45.5703 286.79C45.8236 283.84 47.1809 281.095 49.3709 279.103C51.5609 277.111 54.4222 276.019 57.3826 276.046C60.3429 276.072 63.1841 277.215 65.3381 279.246C67.4921 281.277 68.8 284.046 69.0003 287C69.0003 287.3 69.0003 287.6 69.0003 287.91C68.9871 291.008 67.7479 293.975 65.5535 296.161C63.3592 298.348 60.3883 299.577 57.2903 299.58L57.2503 299.57Z" fill="white"/>
<path fill-rule="evenodd" clip-rule="evenodd" d="M63.7006 290.72C63.3506 290.55 61.7006 289.72 61.3506 289.62C61.0006 289.52 60.8106 289.45 60.5806 289.79C60.3506 290.13 59.6906 290.89 59.5006 291.12C59.3106 291.35 59.1006 291.37 58.7506 291.2C57.7413 290.803 56.8103 290.231 56.0006 289.51C55.2519 288.831 54.6112 288.042 54.1006 287.17C53.9006 286.83 54.1006 286.64 54.2506 286.47C54.4006 286.3 54.5906 286.08 54.7606 285.88L54.8906 285.72C54.9706 285.588 55.0408 285.451 55.1006 285.31C55.1505 285.219 55.1767 285.118 55.1767 285.015C55.1767 284.912 55.1505 284.81 55.1006 284.72C55.0106 284.55 54.3306 282.87 54.0406 282.19C53.7506 281.51 53.4706 281.63 53.2706 281.63C53.0706 281.63 52.8406 281.63 52.6106 281.63C52.4381 281.633 52.268 281.671 52.1113 281.744C51.9546 281.816 51.8147 281.92 51.7006 282.05C51.3133 282.413 51.0063 282.853 50.7996 283.343C50.593 283.832 50.4911 284.359 50.5006 284.89C50.5059 285.283 50.5665 285.673 50.6806 286.05C50.9474 286.898 51.3603 287.693 51.9006 288.4C52.0706 288.62 54.2706 292.17 57.7506 293.53C61.2306 294.89 61.2306 294.44 61.8606 294.38C62.3383 294.288 62.7912 294.097 63.1893 293.817C63.5875 293.538 63.922 293.178 64.1706 292.76C64.3886 292.253 64.4579 291.695 64.3706 291.15C64.2606 291 64.0006 290.89 63.7006 290.72Z" fill="white"/>
<path d="M121 46.6398C114.613 46.7691 108.531 49.3971 104.06 53.9599C99.5884 58.5226 97.084 64.6564 97.084 71.0448C97.084 77.4331 99.5884 83.5669 104.06 88.1297C108.531 92.6924 114.613 95.3205 121 95.4498C124.246 95.5155 127.473 94.9328 130.492 93.7359C133.51 92.5389 136.26 90.7518 138.579 88.479C140.898 86.2063 142.741 83.4937 143.998 80.5001C145.256 77.5064 145.904 74.2919 145.904 71.0448C145.904 67.7976 145.256 64.5831 143.998 61.5895C142.741 58.5958 140.898 55.8832 138.579 53.6105C136.26 51.3378 133.51 49.5506 130.492 48.3537C127.473 47.1567 124.246 46.574 121 46.6398Z" fill="#263238"/>
<path d="M136.48 63.2197C136.304 62.5293 135.948 61.8984 135.447 61.3921C134.946 60.8858 134.319 60.5225 133.63 60.3397C131.1 59.6597 120.99 59.6597 120.99 59.6597C120.99 59.6597 110.88 59.6597 108.36 60.3397C107.673 60.5266 107.046 60.8911 106.544 61.3966C106.042 61.9022 105.682 62.5309 105.5 63.2197C104.607 68.4015 104.607 73.6979 105.5 78.8797C105.684 79.5675 106.045 80.1953 106.547 80.7005C107.048 81.2058 107.673 81.5709 108.36 81.7597C110.88 82.4397 120.99 82.4397 120.99 82.4397C120.99 82.4397 131.1 82.4397 133.63 81.7597C134.316 81.5712 134.94 81.206 135.44 80.7006C135.94 80.1952 136.299 79.5672 136.48 78.8797C137.387 73.699 137.387 68.4003 136.48 63.2197Z" fill="white"/>
<path d="M117.69 75.8597V66.2397L126.14 71.0498L117.69 75.8597Z" fill="#263238"/>
<path d="M117.53 396C111.201 396 105.014 397.877 99.752 401.393C94.4897 404.909 90.3881 409.907 87.9661 415.754C85.5441 421.601 84.9104 428.035 86.1452 434.243C87.3799 440.45 90.4276 446.152 94.9029 450.627C99.3781 455.103 105.08 458.15 111.287 459.385C117.495 460.62 123.929 459.986 129.776 457.564C135.623 455.142 140.621 451.041 144.137 445.778C147.654 440.516 149.53 434.329 149.53 428C149.53 419.513 146.159 411.374 140.158 405.373C134.157 399.371 126.017 396 117.53 396Z" fill="#263238"/>
<path d="M112.14 448.52H120.42V427.79H126.19L126.81 420.85H120.42V416.85C120.42 415.21 120.74 414.57 122.33 414.57H126.81V407.36H121.08C114.92 407.36 112.14 410.08 112.14 415.27V420.8H107.83V427.8H112.14V448.52Z" fill="white"/>
<path d="M395.26 364.11C390.432 364.108 385.711 365.538 381.695 368.22C377.679 370.901 374.549 374.713 372.7 379.174C370.852 383.635 370.367 388.544 371.309 393.28C372.25 398.016 374.575 402.366 377.99 405.78C381.404 409.195 385.755 411.52 390.491 412.461C395.227 413.403 400.136 412.919 404.596 411.07C409.057 409.221 412.869 406.091 415.551 402.075C418.232 398.059 419.662 393.339 419.66 388.51C419.652 382.041 417.079 375.839 412.505 371.265C407.931 366.691 401.729 364.118 395.26 364.11Z" fill="#263238"/>
<path d="M395.26 376.86C399.06 376.86 399.51 376.86 401.01 376.94C401.912 376.952 402.805 377.118 403.65 377.43C404.264 377.662 404.82 378.023 405.28 378.49C405.754 378.949 406.116 379.51 406.34 380.13C406.659 380.974 406.825 381.868 406.83 382.77C406.9 384.27 406.92 384.77 406.92 388.51C406.92 392.25 406.92 392.76 406.83 394.26C406.825 395.162 406.659 396.056 406.34 396.9C406.118 397.518 405.755 398.076 405.28 398.53C404.823 399.003 404.266 399.368 403.65 399.6C402.805 399.912 401.912 400.078 401.01 400.09C399.51 400.16 399.06 400.17 395.26 400.17C391.46 400.17 391.01 400.17 389.51 400.09C388.609 400.076 387.716 399.911 386.87 399.6C386.255 399.368 385.698 399.003 385.24 398.53C384.765 398.076 384.402 397.518 384.18 396.9C383.862 396.056 383.696 395.162 383.69 394.26C383.62 392.76 383.6 392.31 383.6 388.51C383.6 384.71 383.6 384.27 383.69 382.77C383.696 381.868 383.862 380.974 384.18 380.13C384.404 379.51 384.767 378.949 385.24 378.49C385.701 378.023 386.257 377.662 386.87 377.43C387.716 377.119 388.609 376.953 389.51 376.94C391.01 376.87 391.46 376.86 395.26 376.86ZM395.26 374.3C391.4 374.3 390.91 374.3 389.4 374.38C388.24 374.396 387.091 374.606 386 375C385.055 375.365 384.197 375.923 383.48 376.64C382.764 377.356 382.205 378.215 381.84 379.16C381.429 380.265 381.206 381.431 381.18 382.61C381.11 384.13 381.09 384.61 381.09 388.47C381.09 392.33 381.09 392.82 381.18 394.34C381.206 395.519 381.429 396.685 381.84 397.79C382.199 398.744 382.755 399.613 383.472 400.338C384.189 401.063 385.05 401.63 386 402C387.105 402.413 388.271 402.636 389.45 402.66C390.96 402.73 391.45 402.74 395.31 402.74C399.17 402.74 399.66 402.74 401.17 402.66C402.349 402.636 403.516 402.413 404.62 402C405.566 401.635 406.424 401.077 407.141 400.36C407.857 399.644 408.416 398.785 408.78 397.84C409.192 396.735 409.415 395.569 409.44 394.39C409.51 392.87 409.53 392.39 409.53 388.52C409.53 384.65 409.53 384.18 409.44 382.66C409.415 381.481 409.192 380.315 408.78 379.21C408.416 378.265 407.857 377.406 407.141 376.69C406.424 375.973 405.566 375.415 404.62 375.05C403.516 374.636 402.349 374.413 401.17 374.39C399.66 374.32 399.17 374.31 395.31 374.31" fill="white"/>
<path d="M395.26 381.21C393.814 381.208 392.399 381.635 391.195 382.438C389.992 383.24 389.053 384.382 388.499 385.718C387.944 387.054 387.799 388.525 388.08 389.944C388.362 391.363 389.059 392.666 390.081 393.689C391.104 394.712 392.408 395.408 393.827 395.69C395.246 395.972 396.716 395.826 398.052 395.272C399.389 394.717 400.53 393.779 401.333 392.575C402.135 391.371 402.562 389.957 402.56 388.51C402.56 386.574 401.791 384.717 400.422 383.348C399.053 381.979 397.197 381.21 395.26 381.21ZM395.26 393.21C394.323 393.21 393.406 392.932 392.627 392.411C391.848 391.89 391.24 391.15 390.881 390.284C390.522 389.418 390.429 388.465 390.612 387.545C390.794 386.626 391.246 385.781 391.909 385.118C392.572 384.455 393.416 384.004 394.336 383.821C395.255 383.638 396.208 383.732 397.074 384.091C397.94 384.45 398.681 385.057 399.202 385.837C399.722 386.616 400 387.532 400 388.47C400 389.727 399.501 390.933 398.612 391.822C397.723 392.711 396.518 393.21 395.26 393.21Z" fill="white"/>
<path d="M404.56 380.92C404.562 381.258 404.463 381.59 404.277 381.872C404.09 382.155 403.824 382.376 403.511 382.507C403.199 382.638 402.855 382.673 402.523 382.608C402.19 382.543 401.885 382.381 401.645 382.142C401.404 381.904 401.241 381.599 401.174 381.267C401.107 380.935 401.14 380.591 401.269 380.278C401.398 379.965 401.618 379.697 401.899 379.509C402.18 379.32 402.511 379.22 402.85 379.22C403.302 379.22 403.735 379.399 404.056 379.717C404.376 380.036 404.557 380.468 404.56 380.92Z" fill="white"/>
<path d="M404.18 169.64C394.367 169.64 384.956 165.741 378.017 158.803C371.078 151.864 367.18 142.453 367.18 132.64C367.18 122.827 371.078 113.416 378.017 106.477C384.956 99.5379 394.367 95.6396 404.18 95.6396C413.993 95.6396 423.404 99.5379 430.343 106.477C437.282 113.416 441.18 122.827 441.18 132.64C441.18 142.453 437.282 151.864 430.343 158.803C423.404 165.741 413.993 169.64 404.18 169.64Z" fill="#263238" stroke="#263238" stroke-linecap="round" stroke-linejoin="round"/>
<path d="M384.48 145.05C388.176 147.423 392.477 148.683 396.87 148.68C411.87 148.68 420.36 136 419.87 124.63C421.437 123.48 422.79 122.066 423.87 120.45C422.396 121.103 420.831 121.531 419.23 121.72C420.916 120.709 422.177 119.121 422.78 117.25C421.196 118.203 419.461 118.88 417.65 119.25C416.432 117.951 414.82 117.091 413.063 116.801C411.306 116.512 409.503 116.81 407.934 117.65C406.364 118.49 405.114 119.824 404.38 121.445C403.645 123.067 403.466 124.886 403.87 126.62C400.656 126.461 397.512 125.628 394.641 124.174C391.771 122.72 389.239 120.677 387.21 118.18C386.176 119.959 385.86 122.065 386.324 124.07C386.788 126.074 387.999 127.827 389.71 128.97C388.428 128.931 387.174 128.588 386.05 127.97C386.035 129.848 386.673 131.672 387.855 133.132C389.038 134.591 390.69 135.594 392.53 135.97C391.343 136.295 390.097 136.339 388.89 136.1C389.404 137.708 390.408 139.115 391.762 140.123C393.116 141.131 394.752 141.689 396.44 141.72C393.049 144.364 388.75 145.561 384.48 145.05Z" fill="white"/>
<path d="M114.15 200.73C110.339 200.73 106.613 201.86 103.444 203.978C100.275 206.095 97.8052 209.105 96.3467 212.626C94.8882 216.147 94.5066 220.021 95.2502 223.759C95.9937 227.497 97.829 230.931 100.524 233.626C103.219 236.321 106.652 238.156 110.391 238.9C114.129 239.643 118.003 239.262 121.524 237.803C125.045 236.345 128.055 233.875 130.172 230.706C132.29 227.537 133.42 223.811 133.42 220C133.415 214.891 131.383 209.993 127.77 206.38C124.157 202.767 119.259 200.735 114.15 200.73Z" fill="#808080"/>
<path d="M108.53 214.95H104.29V228.64H108.53V214.95Z" fill="white"/>
<path d="M106.39 213.16C106.891 213.164 107.382 213.019 107.801 212.743C108.22 212.468 108.547 212.074 108.742 211.612C108.936 211.15 108.989 210.641 108.894 210.149C108.798 209.657 108.559 209.204 108.206 208.848C107.853 208.492 107.402 208.249 106.911 208.15C106.42 208.051 105.91 208.1 105.446 208.291C104.983 208.482 104.587 208.806 104.308 209.222C104.029 209.639 103.88 210.129 103.88 210.63C103.879 210.961 103.942 211.289 104.068 211.595C104.193 211.901 104.378 212.18 104.611 212.415C104.844 212.65 105.121 212.837 105.426 212.964C105.732 213.092 106.059 213.159 106.39 213.16Z" fill="white"/>
<path d="M115.31 221.46C115.31 219.53 116.19 218.39 117.89 218.39C119.59 218.39 120.19 219.49 120.19 221.46V228.64H124.41V220C124.41 216.34 122.33 214.56 119.41 214.56C118.585 214.549 117.772 214.753 117.05 215.151C116.327 215.548 115.721 216.127 115.29 216.83V215H111.22V228.69H115.29L115.31 221.46Z" fill="white"/>
<path d="M428.94 337.34C426.314 337.34 423.713 336.823 421.287 335.817C418.86 334.812 416.655 333.339 414.798 331.482C412.941 329.625 411.468 327.42 410.463 324.994C409.458 322.567 408.94 319.966 408.94 317.34C408.94 312.036 411.048 306.948 414.798 303.198C418.549 299.447 423.636 297.34 428.94 297.34C434.245 297.34 439.332 299.447 443.083 303.198C446.833 306.948 448.94 312.036 448.94 317.34C448.94 319.966 448.423 322.567 447.418 324.994C446.413 327.42 444.94 329.625 443.083 331.482C441.225 333.339 439.021 334.812 436.594 335.817C434.168 336.823 431.567 337.34 428.94 337.34Z" fill="#808080"/>
<path d="M426 324.92C426.577 324.811 427.121 324.572 427.59 324.22C427.992 323.917 428.331 323.541 428.59 323.11C429.012 322.443 429.231 321.668 429.22 320.88C429.239 320.154 429.048 319.439 428.67 318.82C428.284 318.237 427.714 317.8 427.05 317.58C427.456 317.391 427.82 317.122 428.12 316.79C428.575 316.198 428.805 315.465 428.77 314.72C428.788 313.955 428.56 313.205 428.12 312.58C427.678 312.059 427.118 311.652 426.486 311.393C425.855 311.134 425.17 311.03 424.49 311.09H417.71V325.09H424C424.671 325.104 425.341 325.047 426 324.92ZM420.5 313.52H423.55C424.112 313.503 424.672 313.577 425.21 313.74C425.457 313.846 425.663 314.028 425.799 314.261C425.934 314.493 425.99 314.763 425.96 315.03C425.985 315.269 425.945 315.51 425.845 315.728C425.744 315.946 425.587 316.133 425.39 316.27C424.937 316.516 424.425 316.634 423.91 316.61H420.5V313.52ZM420.5 322.68V318.94H423.95C424.427 318.919 424.904 318.998 425.35 319.17C425.638 319.297 425.879 319.511 426.04 319.781C426.202 320.052 426.275 320.366 426.25 320.68C426.287 321.031 426.219 321.385 426.053 321.697C425.887 322.009 425.632 322.264 425.32 322.43C424.87 322.615 424.386 322.7 423.9 322.68H420.5Z" fill="white"/>
<path d="M431.53 324.19C432.56 325.029 433.852 325.479 435.18 325.46C435.902 325.506 436.626 325.395 437.301 325.134C437.976 324.874 438.587 324.47 439.09 323.95C439.618 323.452 439.97 322.796 440.09 322.08H437.32C437.186 322.351 436.999 322.592 436.77 322.79C436.34 323.124 435.805 323.294 435.26 323.27C434.733 323.284 434.213 323.149 433.76 322.88C433.407 322.638 433.122 322.31 432.933 321.926C432.744 321.543 432.657 321.117 432.68 320.69H440.23C440.258 320.002 440.231 319.313 440.15 318.63C440.035 317.861 439.752 317.127 439.32 316.48C438.88 315.811 438.259 315.281 437.53 314.95C436.76 314.618 435.929 314.451 435.09 314.46C434.406 314.433 433.724 314.547 433.086 314.795C432.448 315.043 431.867 315.419 431.38 315.9C430.892 316.459 430.518 317.109 430.281 317.812C430.045 318.516 429.949 319.259 430 320C429.914 320.769 430.007 321.548 430.272 322.275C430.538 323.002 430.968 323.658 431.53 324.19ZM433.47 317.29C433.685 317.086 433.94 316.928 434.219 316.826C434.497 316.725 434.794 316.682 435.09 316.7C435.677 316.684 436.25 316.883 436.7 317.26C436.925 317.47 437.105 317.724 437.229 318.006C437.353 318.288 437.418 318.592 437.42 318.9H432.75C432.811 318.3 433.063 317.735 433.47 317.29Z" fill="white"/>
<path d="M437.96 311.89H431.86V313.31H437.96V311.89Z" fill="white"/>
<path d="M283.33 70.6099C278.026 70.6099 272.939 68.5027 269.188 64.752C265.437 61.0013 263.33 55.9142 263.33 50.6099C263.33 45.3055 265.437 40.2185 269.188 36.4677C272.939 32.717 278.026 30.6099 283.33 30.6099C288.634 30.6099 293.722 32.717 297.472 36.4677C301.223 40.2185 303.33 45.3055 303.33 50.6099C303.33 55.9142 301.223 61.0013 297.472 64.752C293.722 68.5027 288.634 70.6099 283.33 70.6099Z" fill="#808080"/>
<path fill-rule="evenodd" clip-rule="evenodd" d="M294.941 56.4598C294.706 56.3325 294.453 56.2415 294.191 56.1898C292.957 55.7681 291.88 54.9839 291.101 53.9398C290.637 53.3785 290.266 52.7473 290 52.0698C289.94 51.9468 289.909 51.8117 289.909 51.6748C289.909 51.5379 289.94 51.4028 290 51.2798C290.28 50.9566 290.649 50.7234 291.06 50.6098C291.581 50.4586 292.067 50.2073 292.49 49.8698C292.58 49.7967 292.652 49.7044 292.701 49.5998C292.706 49.5701 292.706 49.5395 292.701 49.5098C292.751 49.3881 292.751 49.2515 292.701 49.1298C292.588 48.9214 292.413 48.7535 292.201 48.6498C292.072 48.5731 291.928 48.526 291.78 48.5122C291.631 48.4983 291.481 48.518 291.34 48.5698C291.094 48.6661 290.84 48.7397 290.58 48.7898C290.294 48.856 289.997 48.856 289.71 48.7898C289.71 48.7898 289.71 48.6798 289.71 48.5998C289.71 48.0698 289.71 47.5298 289.71 46.9698C289.765 46.103 289.745 45.2332 289.65 44.3698C289.336 42.8931 288.461 41.5957 287.21 40.7498C286.321 40.1399 285.286 39.7743 284.21 39.6898C283.85 39.6898 283.501 39.6898 283.141 39.6898C281.854 39.6347 280.582 39.9778 279.497 40.6721C278.413 41.3664 277.569 42.3783 277.08 43.5698C276.738 44.5858 276.629 45.6658 276.761 46.7298C276.821 47.4214 276.838 48.1161 276.81 48.8098C276.48 48.8671 276.141 48.8671 275.81 48.8098C275.57 48.8098 275.31 48.6698 275.02 48.5898C274.887 48.5659 274.749 48.5695 274.617 48.6005C274.485 48.6314 274.36 48.689 274.251 48.7698C274.133 48.8313 274.033 48.9211 273.96 49.0312C273.887 49.1413 273.842 49.268 273.83 49.3998V49.4598C273.862 49.6271 273.955 49.7767 274.09 49.8798L274.36 50.0798C274.87 50.3719 275.41 50.6067 275.971 50.7798C276.133 50.833 276.282 50.9215 276.407 51.0391C276.531 51.1567 276.628 51.3004 276.691 51.4598C276.732 51.8937 276.63 52.3291 276.4 52.6998C275.839 53.7999 275.014 54.7445 274.001 55.4498C273.45 55.8208 272.842 56.0979 272.201 56.2698C271.949 56.3115 271.722 56.443 271.56 56.6398V56.7098C271.534 56.7948 271.529 56.8852 271.546 56.9726C271.564 57.06 271.603 57.1416 271.661 57.2098C271.734 57.2987 271.826 57.3704 271.93 57.4198C272.451 57.688 273.006 57.8831 273.58 57.9998C273.922 58.0517 274.257 58.1388 274.58 58.2598L274.691 58.5398C274.791 58.8398 274.831 59.1798 274.941 59.5398C274.958 59.5901 274.989 59.635 275.029 59.67C275.07 59.7051 275.118 59.7291 275.171 59.7398C275.295 59.7915 275.436 59.7915 275.56 59.7398C276.415 59.5313 277.304 59.5007 278.171 59.6498C279.063 59.9806 279.904 60.4351 280.671 60.9998C281.262 61.4123 281.952 61.6607 282.671 61.7198C283.223 61.7552 283.778 61.7552 284.33 61.7198C284.795 61.6739 285.243 61.5235 285.641 61.2798C286.531 60.7698 287.31 60.1698 288.18 59.7798C288.508 59.7033 288.844 59.6664 289.18 59.6698C289.899 59.643 290.618 59.6764 291.33 59.7698C291.342 59.7745 291.353 59.7769 291.365 59.7769C291.378 59.7769 291.389 59.7745 291.4 59.7698C291.497 59.7582 291.586 59.712 291.65 59.6398C291.685 59.5956 291.708 59.5444 291.721 59.4898C291.721 59.3798 291.721 59.4098 291.721 59.4898C291.725 59.47 291.725 59.4496 291.721 59.4298C291.797 59.0733 291.94 58.7342 292.141 58.4298C292.2 58.3776 292.27 58.3382 292.346 58.3141C292.422 58.2901 292.501 58.2818 292.58 58.2898C293.164 58.1977 293.735 58.0366 294.28 57.8098C294.55 57.7216 294.79 57.5586 294.971 57.3398C295.009 57.2853 295.037 57.2235 295.05 57.1581C295.064 57.0927 295.065 57.0251 295.052 56.9596C295.039 56.894 295.012 56.8318 294.974 56.7768C294.936 56.7218 294.887 56.6752 294.83 56.6398L294.941 56.4598Z" fill="white"/>
<path d="M329.71 85.5898H169.66C161.64 85.5898 155.14 92.0907 155.14 100.11V440.07C155.14 448.089 161.64 454.59 169.66 454.59H329.71C337.729 454.59 344.23 448.089 344.23 440.07V100.11C344.23 92.0907 337.729 85.5898 329.71 85.5898Z" fill="#263238"/>
<mask id="mask0_126_869" style="mask-type:luminance" maskUnits="userSpaceOnUse" x="155" y="85" width="190" height="370">
<path d="M329.71 85.5898H169.66C161.64 85.5898 155.14 92.0907 155.14 100.11V440.07C155.14 448.089 161.64 454.59 169.66 454.59H329.71C337.729 454.59 344.23 448.089 344.23 440.07V100.11C344.23 92.0907 337.729 85.5898 329.71 85.5898Z" fill="white"/>
</mask>
<g mask="url(#mask0_126_869)">
<path opacity="0.2" d="M171.43 85.5898C167.109 85.5898 162.966 87.3061 159.911 90.3611C156.856 93.416 155.14 97.5595 155.14 101.88V438.29C155.137 440.674 155.659 443.03 156.668 445.19C157.677 447.35 159.149 449.262 160.98 450.79L271.3 85.5898H171.43Z" fill="white"/>
<path d="M256.099 443.91C256.099 442.638 255.722 441.394 255.015 440.337C254.308 439.279 253.303 438.455 252.128 437.968C250.952 437.482 249.659 437.355 248.411 437.604C247.164 437.853 246.018 438.467 245.119 439.367C244.22 440.267 243.609 441.414 243.362 442.662C243.115 443.91 243.243 445.203 243.732 446.378C244.22 447.552 245.046 448.556 246.104 449.261C247.163 449.967 248.407 450.342 249.679 450.34C250.523 450.34 251.359 450.174 252.138 449.85C252.918 449.527 253.626 449.053 254.222 448.456C254.819 447.859 255.291 447.15 255.613 446.37C255.935 445.59 256.101 444.754 256.099 443.91Z" stroke="white" stroke-linecap="round" stroke-linejoin="round"/>
</g>
<path d="M329.71 85.5898H169.66C161.64 85.5898 155.14 92.0907 155.14 100.11V440.07C155.14 448.089 161.64 454.59 169.66 454.59H329.71C337.729 454.59 344.23 448.089 344.23 440.07V100.11C344.23 92.0907 337.729 85.5898 329.71 85.5898Z" stroke="#263238" stroke-linecap="round" stroke-linejoin="round"/>
<path d="M335.81 110.65H163.54V432.69H335.81V110.65Z" fill="#7D18F7" stroke="#263238" stroke-linecap="round" stroke-linejoin="round"/>
<path d="M246.969 367.51C290.594 367.51 325.959 332.145 325.959 288.52C325.959 244.895 290.594 209.53 246.969 209.53C203.345 209.53 167.979 244.895 167.979 288.52C167.979 332.145 203.345 367.51 246.969 367.51Z" fill="#263238"/>
<path d="M330.55 149.3H169.5V185.97H330.55V149.3Z" fill="white"/>
<path d="M330.55 390.07H169.5V426.74H330.55V390.07Z" fill="white"/>
<path d="M330.55 377.32H169.5V378.91H330.55V377.32Z" fill="white"/>
<path d="M330.55 384.49H169.5V386.08H330.55V384.49Z" fill="white"/>
<path d="M329.949 113.99H315.669V121.82H329.949V113.99Z" stroke="#263238" stroke-width="0.821067" stroke-linecap="round" stroke-linejoin="round"/>
<path d="M326.809 113.99H315.669V121.82H326.809V113.99Z" fill="#263238" stroke="#263238" stroke-width="0.725073" stroke-linecap="round" stroke-linejoin="round"/>
<path d="M331.929 116.18H329.919V119.63H331.929V116.18Z" fill="#263238" stroke="#263238" stroke-width="0.725073" stroke-linecap="round" stroke-linejoin="round"/>
<path d="M170.04 116.42H167.42V120.91H170.04V116.42Z" fill="#263238" stroke="#263238" stroke-width="0.883086" stroke-linecap="round" stroke-linejoin="round"/>
<path d="M174.16 114.84H171.54V120.91H174.16V114.84Z" fill="#263238" stroke="#263238" stroke-width="0.883086" stroke-linecap="round" stroke-linejoin="round"/>
<path d="M178.269 112.98H175.649V120.91H178.269V112.98Z" fill="#263238" stroke="#263238" stroke-width="0.883086" stroke-linecap="round" stroke-linejoin="round"/>
<path d="M331.739 126.17H166.319V138.61H331.739V126.17Z" fill="#263238"/>
<mask id="mask1_126_869" style="mask-type:luminance" maskUnits="userSpaceOnUse" x="170" y="153" width="269" height="212">
<path d="M438.67 153.27H237.31V213C224.834 214.6 212.948 219.266 202.716 226.581C192.483 233.896 184.222 243.632 178.671 254.919C173.119 266.206 170.451 278.693 170.904 291.263C171.357 303.833 174.917 316.095 181.266 326.954C187.615 337.812 196.555 346.929 207.288 353.488C218.02 360.048 230.211 363.846 242.77 364.544C255.329 365.242 267.865 362.818 279.258 357.488C290.652 352.158 300.547 344.088 308.06 334H438.67V153.27Z" fill="white"/>
</mask>
<g mask="url(#mask1_126_869)">
<path d="M164 363C164 363 185.08 289.6 189.06 273.91C193.04 258.22 199.06 248.01 211.48 245.52C223.9 243.03 246.83 240.72 246.83 240.72C246.83 240.72 266.76 238.72 281.2 239.72C295.64 240.72 308.85 248.44 315.82 253.72C322.79 259 342.97 277.13 342.97 277.13L340.48 235.29L358.66 236.78C358.66 236.78 371.86 295.06 373.6 305.78C375.34 316.5 375.35 321.23 373.6 322.47C371.85 323.71 374.85 324.47 358.91 319.23C342.97 313.99 324.29 306.78 314.08 303.79C303.87 300.8 302.62 300.3 302.62 300.3C302.62 300.3 277.62 337.92 269.67 349.13C264.213 357.089 259.36 365.446 255.15 374.13" fill="white"/>
<mask id="mask2_126_869" style="mask-type:luminance" maskUnits="userSpaceOnUse" x="164" y="235" width="211" height="140">
<path d="M164 363C164 363 185.08 289.6 189.06 273.91C193.04 258.22 199.06 248.01 211.48 245.52C223.9 243.03 246.83 240.72 246.83 240.72C246.83 240.72 266.76 238.72 281.2 239.72C295.64 240.72 308.85 248.44 315.82 253.72C322.79 259 342.97 277.13 342.97 277.13L340.48 235.29L358.66 236.78C358.66 236.78 371.86 295.06 373.6 305.78C375.34 316.5 375.35 321.23 373.6 322.47C371.85 323.71 374.85 324.47 358.91 319.23C342.97 313.99 324.29 306.78 314.08 303.79C303.87 300.8 302.62 300.3 302.62 300.3C302.62 300.3 277.62 337.92 269.67 349.13C264.213 357.089 259.36 365.446 255.15 374.13" fill="white"/>
</mask>
<g mask="url(#mask2_126_869)">
<path opacity="0.2" d="M373.57 322.39C375.32 321.15 375.32 316.39 373.57 305.7C372.57 299.31 367.42 276 363.46 258.22C365.03 279.22 365.64 299.74 362.46 303.57C355.46 311.85 345.23 300.97 345.23 300.97L343.28 284.83C343.28 284.83 308.42 259.12 295.34 254.76C282.26 250.4 268.34 249.53 254.81 253.89C241.28 258.25 229.97 262.61 221.69 270.89C213.41 279.17 184.69 345.41 184.69 345.41L181.44 365.08L255.12 374C259.33 365.316 264.184 356.959 269.64 349C277.64 337.79 302.59 300.17 302.59 300.17C302.59 300.17 303.84 300.67 314.05 303.66C324.26 306.65 342.94 313.87 358.88 319.1C374.82 324.33 371.83 323.64 373.57 322.39Z" fill="black"/>
</g>
<path d="M164 363C164 363 185.08 289.6 189.06 273.91C193.04 258.22 199.06 248.01 211.48 245.52C223.9 243.03 246.83 240.72 246.83 240.72C246.83 240.72 266.76 238.72 281.2 239.72C295.64 240.72 308.85 248.44 315.82 253.72C322.79 259 342.97 277.13 342.97 277.13L340.48 235.29L358.66 236.78C358.66 236.78 371.86 295.06 373.6 305.78C375.34 316.5 375.35 321.23 373.6 322.47C371.85 323.71 374.85 324.47 358.91 319.23C342.97 313.99 324.29 306.78 314.08 303.79C303.87 300.8 302.62 300.3 302.62 300.3C302.62 300.3 277.62 337.92 269.67 349.13C264.213 357.089 259.36 365.446 255.15 374.13" stroke="#263238" stroke-linecap="round" stroke-linejoin="round"/>
<path d="M309.7 288.67L302.59 300.23L323.63 288.67" stroke="#263238" stroke-linecap="round" stroke-linejoin="round"/>
<path d="M342.94 277.06C342.94 277.06 343.94 297.73 345.18 300.97C346.42 304.21 351.91 305.7 351.91 305.7" fill="white"/>
<path d="M342.94 277.06C342.94 277.06 343.94 297.73 345.18 300.97C346.42 304.21 351.91 305.7 351.91 305.7" stroke="#263238" stroke-linecap="round" stroke-linejoin="round"/>
<path d="M233.19 276.43C233.19 276.43 230.47 282.88 231.83 282.88C233.19 282.88 242.02 279.49 246.1 279.49C250.18 279.49 254.59 286.62 254.59 286.62C254.59 286.62 266.48 277.79 270.22 278.81C272.052 279.423 273.732 280.419 275.15 281.73C275.386 281.936 275.676 282.071 275.986 282.119C276.296 282.167 276.613 282.127 276.9 282.002C277.188 281.878 277.435 281.674 277.612 281.416C277.788 281.157 277.888 280.853 277.9 280.54C277.97 278.71 278.03 276.21 278.03 273.03C278.03 265.56 271.58 245.18 259.69 244.16C247.8 243.14 245.76 251.63 240.69 261.82C235.62 272.01 233.19 276.43 233.19 276.43Z" fill="#263238"/>
<path d="M258.76 232.48C258.76 232.48 247.3 234 242.07 239C236.84 244 238.58 251.95 235.84 259.17C233.1 266.39 228.37 281.09 230.84 280.84C233.31 280.59 242.05 273.62 244.54 275.36C247.03 277.1 252.76 284.36 253.76 284.82C254.76 285.28 267.46 276.11 269.2 275.11C270.94 274.11 279.41 285.11 279.66 282.11C279.91 279.11 280.41 261.44 278.66 250.73C276.91 240.02 264.49 232.73 258.76 232.48Z" fill="white" stroke="#263238" stroke-linecap="round" stroke-linejoin="round"/>
<path d="M262.74 218.53C262.74 218.53 258.51 231.48 255 236C251.49 240.52 250 241.23 248.78 251.69C247.56 262.15 253.01 285.81 254.78 285.31C256.55 284.81 273.71 257.42 279.44 252.93C285.17 248.44 291.15 243.72 291.15 243.72C291.15 243.72 277.2 239.48 272.47 233.51C268.895 228.739 265.645 223.735 262.74 218.53Z" fill="white"/>
<mask id="mask3_126_869" style="mask-type:luminance" maskUnits="userSpaceOnUse" x="248" y="218" width="44" height="68">
<path d="M262.74 218.53C262.74 218.53 258.51 231.48 255 236C251.49 240.52 250 241.23 248.78 251.69C247.56 262.15 253.01 285.81 254.78 285.31C256.55 284.81 273.71 257.42 279.44 252.93C285.17 248.44 291.15 243.72 291.15 243.72C291.15 243.72 277.2 239.48 272.47 233.51C268.895 228.739 265.645 223.735 262.74 218.53Z" fill="white"/>
</mask>
<g mask="url(#mask3_126_869)">
<path opacity="0.2" d="M281.91 251C286.76 247.19 291.14 243.73 291.14 243.73C291.14 243.73 277.19 239.49 272.46 233.52C268.89 228.759 265.643 223.764 262.74 218.57C261.289 222.954 259.597 227.253 257.67 231.45C259.78 237.36 265.66 247 281.91 251Z" fill="black"/>
<path d="M272.46 233.48C268.89 228.719 265.643 223.724 262.74 218.53C262.74 218.53 261.32 222.88 259.45 227.41C261 231.9 264.11 238.58 269.68 242.52C274.184 245.525 279.18 247.718 284.44 249L291.14 243.72C291.14 243.72 277.19 239.45 272.46 233.48Z" fill="#263238"/>
</g>
<path d="M262.74 218.53C262.74 218.53 258.51 231.48 255 236C251.49 240.52 250 241.23 248.78 251.69C247.56 262.15 253.01 285.81 254.78 285.31C256.55 284.81 273.71 257.42 279.44 252.93C285.17 248.44 291.15 243.72 291.15 243.72C291.15 243.72 277.2 239.48 272.47 233.51C268.895 228.739 265.645 223.735 262.74 218.53Z" stroke="#263238" stroke-linecap="round" stroke-linejoin="round"/>
<path d="M315.79 185.41C315.79 185.41 315.05 202.1 315.54 207.57C316.03 213.04 318.03 222.57 313.54 231.48C309.05 240.39 305.32 246.18 301.09 247.67C296.86 249.16 283.16 246.18 272.2 237.96C261.24 229.74 259.25 212.81 257.5 207.33C255.75 201.85 257.75 183.17 268.96 177.19C278.036 172.518 288.567 171.536 298.35 174.45C304.34 176.44 315.79 185.41 315.79 185.41Z" fill="white"/>
<mask id="mask4_126_869" style="mask-type:luminance" maskUnits="userSpaceOnUse" x="256" y="172" width="61" height="77">
<path d="M315.79 185.41C315.79 185.41 315.05 202.1 315.54 207.57C316.03 213.04 318.03 222.57 313.54 231.48C309.05 240.39 305.32 246.18 301.09 247.67C296.86 249.16 283.16 246.18 272.2 237.96C261.24 229.74 259.25 212.81 257.5 207.33C255.75 201.85 257.75 183.17 268.96 177.19C278.036 172.518 288.567 171.536 298.35 174.45C304.34 176.44 315.79 185.41 315.79 185.41Z" fill="white"/>
</mask>
<g mask="url(#mask4_126_869)">
<path opacity="0.2" d="M269 177.189C267.401 178.055 265.953 179.173 264.71 180.499L270.48 184.599C270.48 184.599 277.89 177.189 294.48 187.649C303.04 193.049 310.42 193.919 315.57 193.489C315.69 189.049 315.85 185.409 315.85 185.409C315.85 185.409 304.4 176.409 298.42 174.409C288.622 171.5 278.079 172.496 269 177.189Z" fill="black"/>
</g>
<path d="M315.79 185.41C315.79 185.41 315.05 202.1 315.54 207.57C316.03 213.04 318.03 222.57 313.54 231.48C309.05 240.39 305.32 246.18 301.09 247.67C296.86 249.16 283.16 246.18 272.2 237.96C261.24 229.74 259.25 212.81 257.5 207.33C255.75 201.85 257.75 183.17 268.96 177.19C278.036 172.518 288.567 171.536 298.35 174.45C304.34 176.44 315.79 185.41 315.79 185.41Z" stroke="#263238" stroke-linecap="round" stroke-linejoin="round"/>
<path d="M292.27 207.92C292.27 209.69 291.58 211.13 290.73 211.13C289.88 211.13 289.19 209.69 289.19 207.92C289.19 206.15 289.88 204.7 290.73 204.7C291.58 204.7 292.27 206.14 292.27 207.92Z" fill="#263238"/>
<path d="M310.46 209.59C310.46 211.37 309.77 212.81 308.92 212.81C308.07 212.81 307.38 211.37 307.38 209.59C307.38 207.81 308.07 206.38 308.92 206.38C309.77 206.38 310.46 207.82 310.46 209.59Z" fill="#263238"/>
<path d="M305.58 204.84C305.58 204.84 300.85 209.57 302.09 211.56C303.33 213.55 306.23 214.67 305.33 217.56C304.43 220.45 297.86 221.56 295.62 217.56" stroke="#263238" stroke-linecap="round" stroke-linejoin="round"/>
<path d="M281.42 220.28C283.277 222.533 285.593 224.365 288.214 225.653C290.835 226.942 293.701 227.656 296.62 227.75C296.62 227.75 286.4 234.47 281.92 233.75C277.44 233.03 281.42 220.28 281.42 220.28Z" fill="#263238" stroke="#263238" stroke-linecap="round" stroke-linejoin="round"/>
<path d="M283.81 198.42C283.81 198.42 288.15 192.42 296.81 196.15" stroke="#263238" stroke-linecap="round" stroke-linejoin="round"/>
<path d="M307.32 198.61C307.32 198.61 312.8 197.35 314.79 202.61" stroke="#263238" stroke-linecap="round" stroke-linejoin="round"/>
<path d="M259.26 214.05C259.26 214.05 261.5 204.34 266.98 200.85C272.46 197.36 277.69 198.11 274.45 193.38C271.21 188.65 269.45 183.91 276.45 181.67C283.45 179.43 297.12 183.17 305.09 186.16C313.06 189.15 328.5 190.16 332.49 178.93C334.95 172.01 327.75 166.5 322.49 163.67C316.66 160.55 310.12 159 303.54 160.16C299.54 160.85 295.73 162.42 291.73 162.82C284.96 163.51 278.99 160.37 272.24 162C266.575 163.352 261.503 166.511 257.79 171C251.54 178.68 249.79 192.63 259.26 214.05Z" fill="#263238"/>
<mask id="mask5_126_869" style="mask-type:luminance" maskUnits="userSpaceOnUse" x="252" y="159" width="81" height="56">
<path d="M259.26 214.05C259.26 214.05 261.5 204.34 266.98 200.85C272.46 197.36 277.69 198.11 274.45 193.38C271.21 188.65 269.45 183.91 276.45 181.67C283.45 179.43 297.12 183.17 305.09 186.16C313.06 189.15 328.5 190.16 332.49 178.93C334.95 172.01 327.75 166.5 322.49 163.67C316.66 160.55 310.12 159 303.54 160.16C299.54 160.85 295.73 162.42 291.73 162.82C284.96 163.51 278.99 160.37 272.24 162C266.575 163.352 261.503 166.511 257.79 171C251.54 178.68 249.79 192.63 259.26 214.05Z" fill="white"/>
</mask>
<g mask="url(#mask5_126_869)">
<path d="M316.93 159.69C316.93 159.69 329.87 166.69 320.81 178.32C311.75 189.95 303.22 181.95 281.73 177.81C260.24 173.67 247.57 184.28 247.57 184.28" stroke="#808080" stroke-linecap="round" stroke-linejoin="round"/>
<path d="M249.38 197C249.38 197 253.52 189 266.98 186.65C280.44 184.3 281.22 186.39 281.22 186.39" stroke="#808080" stroke-linecap="round" stroke-linejoin="round"/>
</g>
<path d="M259.26 214.05C259.26 214.05 261.5 204.34 266.98 200.85C272.46 197.36 277.69 198.11 274.45 193.38C271.21 188.65 269.45 183.91 276.45 181.67C283.45 179.43 297.12 183.17 305.09 186.16C313.06 189.15 328.5 190.16 332.49 178.93C334.95 172.01 327.75 166.5 322.49 163.67C316.66 160.55 310.12 159 303.54 160.16C299.54 160.85 295.73 162.42 291.73 162.82C284.96 163.51 278.99 160.37 272.24 162C266.575 163.352 261.503 166.511 257.79 171C251.54 178.68 249.79 192.63 259.26 214.05Z" stroke="#263238" stroke-linecap="round" stroke-linejoin="round"/>
<path d="M264.89 210.51C264.89 210.51 258.43 195.72 252.74 203.42C247.05 211.12 257.36 220.86 265.1 218.97" fill="white"/>
<path d="M264.89 210.51C264.89 210.51 258.43 195.72 252.74 203.42C247.05 211.12 257.36 220.86 265.1 218.97" stroke="#263238" stroke-linecap="round" stroke-linejoin="round"/>
<path d="M335.22 208.82C335.22 208.82 330.99 208.32 330.22 211.82C329.45 215.32 328.72 220.82 330.22 220.82C331.72 220.82 334.45 220.08 335.45 217.82C336.45 215.56 337.45 208.6 337.45 208.6L335.22 208.82Z" fill="white" stroke="#263238" stroke-linecap="round" stroke-linejoin="round"/>
<path d="M341.94 207.57C341.94 207.57 335.94 206.57 335.22 208.82C334.5 211.07 333.48 218.82 334.22 219.03C334.96 219.24 339.45 217.29 339.45 217.29L341.94 207.57Z" fill="white" stroke="#263238" stroke-linecap="round" stroke-linejoin="round"/>
<path d="M349.91 208.07C349.91 208.07 342.91 203.59 341.2 205.83C339.49 208.07 339.45 217.29 339.45 217.29C340.069 217.427 340.713 217.407 341.322 217.232C341.931 217.058 342.488 216.734 342.94 216.29C344.19 214.8 345.68 212.81 345.68 212.81C345.68 212.81 350.68 214.05 351.41 213.81C352.14 213.57 353.9 213.81 353.41 211.32C352.92 208.83 349.91 208.07 349.91 208.07Z" fill="white" stroke="#263238" stroke-linecap="round" stroke-linejoin="round"/>
<path d="M359.38 212.56C356.237 210.387 353.672 207.48 351.91 204.09C349.42 198.86 348.17 199.09 346.91 201.35C345.65 203.61 347.15 205.83 348.15 207.82C349.15 209.81 353.38 214.55 353.38 214.55L359.38 212.56Z" fill="white" stroke="#263238" stroke-linecap="round" stroke-linejoin="round"/>
<path d="M314.58 247.4C314.58 247.4 310.97 278.23 311.53 279.9C312.09 281.57 318.19 283.51 319.58 282.4C320.97 281.29 320.14 279.07 319.58 277.68C319.02 276.29 324.3 250.46 324.3 250.46L314.58 247.4Z" fill="#7D18F7" stroke="#263238" stroke-linecap="round" stroke-linejoin="round"/>
<path d="M223.63 258.08L241.91 315.17C241.91 315.17 283.91 290.71 293.75 277.95C303.59 265.19 309.27 250.8 312.75 249.45C316.23 248.1 328.51 251.45 330.31 253.45C332.11 255.45 331.69 257.64 329.51 259.7C327.33 261.76 326.09 262.05 326.09 262.05C326.09 262.05 325.98 266.54 325 267.32C324.02 268.1 324.25 267.09 324 268.09C323.83 269.159 323.438 270.181 322.85 271.09C322.13 272.09 321.85 272.61 321.16 272.88C319.727 273.49 318.236 273.952 316.71 274.26C314.022 274.953 311.289 275.454 308.53 275.76C306.8 276.06 295.53 298.33 284.95 311.6C274.37 324.87 240.95 355.3 235.7 355.46C230.45 355.62 199.61 304.68 193 292.17" fill="white"/>
<mask id="mask6_126_869" style="mask-type:luminance" maskUnits="userSpaceOnUse" x="193" y="249" width="139" height="107">
<path d="M223.63 258.08L241.91 315.17C241.91 315.17 283.91 290.71 293.75 277.95C303.59 265.19 309.27 250.8 312.75 249.45C316.23 248.1 328.51 251.45 330.31 253.45C332.11 255.45 331.69 257.64 329.51 259.7C327.33 261.76 326.09 262.05 326.09 262.05C326.09 262.05 325.98 266.54 325 267.32C324.02 268.1 324.25 267.09 324 268.09C323.83 269.159 323.438 270.181 322.85 271.09C322.13 272.09 321.85 272.61 321.16 272.88C319.727 273.49 318.236 273.952 316.71 274.26C314.022 274.953 311.289 275.454 308.53 275.76C306.8 276.06 295.53 298.33 284.95 311.6C274.37 324.87 240.95 355.3 235.7 355.46C230.45 355.62 199.61 304.68 193 292.17" fill="white"/>
</mask>
<g mask="url(#mask6_126_869)">
<path opacity="0.2" d="M322.85 271.07C323.439 270.161 323.83 269.139 324 268.07C324.22 267.07 324 268.07 325 267.3C326 266.53 326.09 262.03 326.09 262.03C326.09 262.03 327.33 261.74 329.51 259.68C331.69 257.62 332.12 255.37 330.31 253.43C328.5 251.49 316.2 248.13 312.75 249.43C311.85 249.78 310.75 251.03 309.55 252.91C311.38 255.91 313.55 257.74 311.55 262.98C308.55 270.98 301.55 280.98 295.55 289.48C289.55 297.98 239.55 344.98 233.55 343.98C228.65 343.16 214.42 325.98 209.36 319.75C220.2 337.14 232.6 355.51 235.75 355.42C240.98 355.26 274.44 324.84 285 311.56C295.56 298.28 306.8 276 308.53 275.74C311.289 275.434 314.023 274.933 316.71 274.24C318.237 273.932 319.728 273.47 321.16 272.86C321.9 272.59 322.13 272.09 322.85 271.07Z" fill="black"/>
</g>
<path d="M223.63 258.08L241.91 315.17C241.91 315.17 283.91 290.71 293.75 277.95C303.59 265.19 309.27 250.8 312.75 249.45C316.23 248.1 328.51 251.45 330.31 253.45C332.11 255.45 331.69 257.64 329.51 259.7C327.33 261.76 326.09 262.05 326.09 262.05C326.09 262.05 325.98 266.54 325 267.32C324.02 268.1 324.25 267.09 324 268.09C323.83 269.159 323.438 270.181 322.85 271.09C322.13 272.09 321.85 272.61 321.16 272.88C319.727 273.49 318.236 273.952 316.71 274.26C314.022 274.953 311.289 275.454 308.53 275.76C306.8 276.06 295.53 298.33 284.95 311.6C274.37 324.87 240.95 355.3 235.7 355.46C230.45 355.62 199.61 304.68 193 292.17" stroke="#263238" stroke-linecap="round" stroke-linejoin="round"/>
<path d="M241.91 315.17C241.91 315.17 237.12 315.37 233.06 328.17" stroke="#263238" stroke-linecap="round" stroke-linejoin="round"/>
<path d="M316.71 274.24C318.236 273.932 319.727 273.47 321.16 272.86C321.9 272.59 322.16 272.09 322.85 271.07C323.438 270.161 323.83 269.139 324 268.07C324.22 267.07 324.87 266.73 325.84 265.95C326.81 265.17 326.06 262.03 326.06 262.03C326.06 262.03 327.3 261.74 329.48 259.68C331.66 257.62 332.09 255.37 330.28 253.43C328.47 251.49 316.17 248.13 312.72 249.43C309.27 250.73 304.05 264 295 276.33L303.42 283.23C306.06 278.83 307.94 275.85 308.56 275.74C311.309 275.433 314.032 274.932 316.71 274.24Z" fill="white"/>
<mask id="mask7_126_869" style="mask-type:luminance" maskUnits="userSpaceOnUse" x="295" y="249" width="37" height="35">
<path d="M316.71 274.24C318.236 273.932 319.727 273.47 321.16 272.86C321.9 272.59 322.16 272.09 322.85 271.07C323.438 270.161 323.83 269.139 324 268.07C324.22 267.07 324.87 266.73 325.84 265.95C326.81 265.17 326.06 262.03 326.06 262.03C326.06 262.03 327.3 261.74 329.48 259.68C331.66 257.62 332.09 255.37 330.28 253.43C328.47 251.49 316.17 248.13 312.72 249.43C309.27 250.73 304.05 264 295 276.33L303.42 283.23C306.06 278.83 307.94 275.85 308.56 275.74C311.309 275.433 314.032 274.932 316.71 274.24Z" fill="white"/>
</mask>
<g mask="url(#mask7_126_869)">
<path opacity="0.2" d="M322.85 271.07C323.439 270.161 323.83 269.139 324 268.07C324.22 267.07 324 268.07 325 267.3C326 266.53 326.09 262.03 326.09 262.03C326.09 262.03 327.33 261.74 329.51 259.68C331.69 257.62 332.12 255.37 330.31 253.43C328.5 251.49 316.2 248.13 312.75 249.43C311.85 249.78 310.75 251.03 309.55 252.91C311.38 255.91 313.55 257.74 311.55 262.98C308.55 270.98 301.55 280.98 295.55 289.48C289.55 297.98 239.55 344.98 233.55 343.98C228.65 343.16 214.42 325.98 209.36 319.75C220.2 337.14 232.6 355.51 235.75 355.42C240.98 355.26 274.44 324.84 285 311.56C295.56 298.28 306.8 276 308.53 275.74C311.289 275.434 314.023 274.933 316.71 274.24C318.237 273.932 319.728 273.47 321.16 272.86C321.9 272.59 322.13 272.09 322.85 271.07Z" fill="black"/>
</g>
<path d="M316.71 274.24C318.236 273.932 319.727 273.47 321.16 272.86C321.9 272.59 322.16 272.09 322.85 271.07C323.438 270.161 323.83 269.139 324 268.07C324.22 267.07 324.87 266.73 325.84 265.95C326.81 265.17 326.06 262.03 326.06 262.03C326.06 262.03 327.3 261.74 329.48 259.68C331.66 257.62 332.09 255.37 330.28 253.43C328.47 251.49 316.17 248.13 312.72 249.43C309.27 250.73 304.05 264 295 276.33L303.42 283.23C306.06 278.83 307.94 275.85 308.56 275.74C311.309 275.433 314.032 274.932 316.71 274.24Z" stroke="#263238" stroke-linecap="round" stroke-linejoin="round"/>
<path d="M305.83 227.25C303.08 227.25 300.83 231.25 300.83 236.09C300.83 240.93 303.06 244.93 305.83 244.93L366.83 263.36V208.07L305.83 227.25Z" fill="#7D18F7" stroke="#263238" stroke-linecap="round" stroke-linejoin="round"/>
<path d="M340.15 219.89L316.35 226.74" stroke="#263238" stroke-linecap="round" stroke-linejoin="round"/>
<path d="M348.11 217.6L343.13 219.04" stroke="#263238" stroke-linecap="round" stroke-linejoin="round"/>
<path d="M313.64 224.79L305.83 227.25C303.08 227.25 300.83 231.25 300.83 236.09C300.83 240.93 303.06 244.93 305.83 244.93L312.88 247.06C311.223 243.556 310.427 239.706 310.559 235.832C310.692 231.959 311.748 228.172 313.64 224.79Z" fill="#263238" stroke="#263238" stroke-linecap="round" stroke-linejoin="round"/>
<path d="M372.08 273.22C383.634 273.22 393 256.596 393 236.09C393 215.584 383.634 198.96 372.08 198.96C360.526 198.96 351.16 215.584 351.16 236.09C351.16 256.596 360.526 273.22 372.08 273.22Z" fill="#D6D6D6" stroke="#263238" stroke-linecap="round" stroke-linejoin="round"/>
<path d="M372.08 227.85L352.15 222.52L350.41 236.72L352.65 251.16L372.08 244.33L372.83 228.25" fill="#D6D6D6"/>
<path d="M372.08 227.85L352.15 222.52L350.41 236.72L352.65 251.16L372.08 244.33L372.83 228.25" stroke="#263238" stroke-linecap="round" stroke-linejoin="round"/>
<path d="M372.08 195.62C359.49 195.62 349.28 213.74 349.28 236.09C349.28 258.44 359.49 276.56 372.08 276.56C384.67 276.56 394.88 258.44 394.88 236.09C394.88 213.74 384.67 195.62 372.08 195.62ZM372.64 270.82C362.15 270.82 353.64 255.27 353.64 236.09C353.64 216.91 362.15 201.37 372.64 201.37C383.13 201.37 391.64 216.91 391.64 236.09C391.64 255.27 383.14 270.82 372.64 270.82Z" fill="#263238" stroke="#263238" stroke-linecap="round" stroke-linejoin="round"/>
<path d="M372.08 244.33C374.643 244.33 376.72 240.64 376.72 236.09C376.72 231.539 374.643 227.85 372.08 227.85C369.517 227.85 367.44 231.539 367.44 236.09C367.44 240.64 369.517 244.33 372.08 244.33Z" fill="#7D18F7" stroke="#263238" stroke-linecap="round" stroke-linejoin="round"/>
<path d="M430.88 194.11L435.51 192.67" stroke="#263238" stroke-linecap="round" stroke-linejoin="round"/>
<path d="M397.73 204.37L425.17 195.87" stroke="#263238" stroke-linecap="round" stroke-linejoin="round"/>
<path d="M401.33 234.05L426.51 234.95" stroke="#263238" stroke-linecap="round" stroke-linejoin="round"/>
<path d="M422.19 271.04L427.41 272.72" stroke="#263238" stroke-linecap="round" stroke-linejoin="round"/>
<path d="M399.53 263.73L418.05 269.71" stroke="#263238" stroke-linecap="round" stroke-linejoin="round"/>
<path d="M400.43 217.86L413.92 216.06" stroke="#263238" stroke-linecap="round" stroke-linejoin="round"/>
<path d="M394.13 273.62L404.03 281.72" stroke="#263238" stroke-linecap="round" stroke-linejoin="round"/>
</g>
</svg>
